<mxfile host="app.diagrams.net" agent="Mozilla/5.0 (Macintosh; Intel Mac OS X 10_15_7) AppleWebKit/537.36 (KHTML, like Gecko) Chrome/141.0.0.0 Safari/537.36" version="28.2.8">
  <diagram name="Page-1" id="Nv9IAqVrpIAzkaPFscEV">
    <mxGraphModel grid="1" page="0" gridSize="10" guides="1" tooltips="1" connect="1" arrows="1" fold="1" pageScale="1" pageWidth="850" pageHeight="1100" math="0" shadow="0">
      <root>
        <mxCell id="0" />
        <mxCell id="1" parent="0" />
        <mxCell id="Yys8PLo1uVGCUstoZyiG-3" value="Vision&lt;br&gt;Discussion" style="strokeWidth=2;html=1;shape=mxgraph.flowchart.direct_data;whiteSpace=wrap;" vertex="1" parent="1">
          <mxGeometry y="20" width="100" height="60" as="geometry" />
        </mxCell>
        <mxCell id="Yys8PLo1uVGCUstoZyiG-4" value="Vision&lt;br&gt;Writing&lt;br&gt;Helper" style="rounded=1;whiteSpace=wrap;html=1;absoluteArcSize=1;arcSize=14;strokeWidth=2;" vertex="1" parent="1">
          <mxGeometry x="160" width="100" height="100" as="geometry" />
        </mxCell>
        <mxCell id="Yys8PLo1uVGCUstoZyiG-5" value="" style="endArrow=classic;html=1;rounded=0;" edge="1" parent="1" source="Yys8PLo1uVGCUstoZyiG-3" target="Yys8PLo1uVGCUstoZyiG-4">
          <mxGeometry width="50" height="50" relative="1" as="geometry">
            <mxPoint x="30" y="190" as="sourcePoint" />
            <mxPoint x="80" y="140" as="targetPoint" />
          </mxGeometry>
        </mxCell>
        <mxCell id="Yys8PLo1uVGCUstoZyiG-6" value="Vision&lt;br&gt;Writer" style="rounded=1;whiteSpace=wrap;html=1;absoluteArcSize=1;arcSize=14;strokeWidth=2;" vertex="1" parent="1">
          <mxGeometry x="320" width="100" height="100" as="geometry" />
        </mxCell>
        <mxCell id="Yys8PLo1uVGCUstoZyiG-9" value="" style="endArrow=classic;html=1;rounded=0;" edge="1" parent="1" source="Yys8PLo1uVGCUstoZyiG-4" target="Yys8PLo1uVGCUstoZyiG-6">
          <mxGeometry width="50" height="50" relative="1" as="geometry">
            <mxPoint x="40" y="210" as="sourcePoint" />
            <mxPoint x="90" y="160" as="targetPoint" />
          </mxGeometry>
        </mxCell>
        <mxCell id="Yys8PLo1uVGCUstoZyiG-10" value="Vision" style="strokeWidth=2;html=1;shape=mxgraph.flowchart.document2;whiteSpace=wrap;size=0.25;" vertex="1" parent="1">
          <mxGeometry x="480" y="20" width="100" height="60" as="geometry" />
        </mxCell>
        <mxCell id="Yys8PLo1uVGCUstoZyiG-13" value="" style="endArrow=classic;html=1;rounded=0;" edge="1" parent="1" source="Yys8PLo1uVGCUstoZyiG-6" target="Yys8PLo1uVGCUstoZyiG-10">
          <mxGeometry width="50" height="50" relative="1" as="geometry">
            <mxPoint x="100" y="370" as="sourcePoint" />
            <mxPoint x="150" y="320" as="targetPoint" />
          </mxGeometry>
        </mxCell>
        <mxCell id="Yys8PLo1uVGCUstoZyiG-14" value="Vision&lt;br&gt;Reviewer" style="rounded=1;whiteSpace=wrap;html=1;absoluteArcSize=1;arcSize=14;strokeWidth=2;" vertex="1" parent="1">
          <mxGeometry x="640" width="100" height="100" as="geometry" />
        </mxCell>
        <mxCell id="Yys8PLo1uVGCUstoZyiG-15" value="" style="endArrow=classic;html=1;rounded=0;" edge="1" parent="1" source="Yys8PLo1uVGCUstoZyiG-10" target="Yys8PLo1uVGCUstoZyiG-14">
          <mxGeometry width="50" height="50" relative="1" as="geometry">
            <mxPoint x="190" y="480" as="sourcePoint" />
            <mxPoint x="240" y="430" as="targetPoint" />
          </mxGeometry>
        </mxCell>
        <mxCell id="Yys8PLo1uVGCUstoZyiG-16" value="Approved?" style="strokeWidth=2;html=1;shape=mxgraph.flowchart.decision;whiteSpace=wrap;" vertex="1" parent="1">
          <mxGeometry x="960" width="100" height="100" as="geometry" />
        </mxCell>
        <mxCell id="Yys8PLo1uVGCUstoZyiG-20" value="" style="curved=1;endArrow=classic;html=1;rounded=0;exitX=0.5;exitY=0;exitDx=0;exitDy=0;exitPerimeter=0;entryX=1;entryY=0;entryDx=0;entryDy=0;" edge="1" parent="1" source="Yys8PLo1uVGCUstoZyiG-16" target="Yys8PLo1uVGCUstoZyiG-6">
          <mxGeometry width="50" height="50" relative="1" as="geometry">
            <mxPoint x="670" y="-70" as="sourcePoint" />
            <mxPoint x="720" y="-120" as="targetPoint" />
            <Array as="points">
              <mxPoint x="670" y="-70" />
            </Array>
          </mxGeometry>
        </mxCell>
        <mxCell id="Yys8PLo1uVGCUstoZyiG-21" value="Scope&lt;br&gt;Writing&lt;br&gt;Helper" style="rounded=1;whiteSpace=wrap;html=1;absoluteArcSize=1;arcSize=14;strokeWidth=2;" vertex="1" parent="1">
          <mxGeometry x="160" y="220" width="100" height="100" as="geometry" />
        </mxCell>
        <mxCell id="Yys8PLo1uVGCUstoZyiG-23" value="" style="curved=1;endArrow=classic;html=1;rounded=0;exitX=0.5;exitY=1;exitDx=0;exitDy=0;exitPerimeter=0;entryX=0.5;entryY=0;entryDx=0;entryDy=0;" edge="1" parent="1" source="Yys8PLo1uVGCUstoZyiG-16" target="Yys8PLo1uVGCUstoZyiG-21">
          <mxGeometry width="50" height="50" relative="1" as="geometry">
            <mxPoint x="530" y="240" as="sourcePoint" />
            <mxPoint x="350" y="170" as="targetPoint" />
            <Array as="points">
              <mxPoint x="490" y="110" />
            </Array>
          </mxGeometry>
        </mxCell>
        <mxCell id="Yys8PLo1uVGCUstoZyiG-24" value="&lt;div&gt;&lt;span style=&quot;background-color: transparent; color: light-dark(rgb(0, 0, 0), rgb(255, 255, 255));&quot;&gt;Scope&lt;/span&gt;&lt;/div&gt;Discussion" style="strokeWidth=2;html=1;shape=mxgraph.flowchart.direct_data;whiteSpace=wrap;" vertex="1" parent="1">
          <mxGeometry y="240" width="100" height="60" as="geometry" />
        </mxCell>
        <mxCell id="Yys8PLo1uVGCUstoZyiG-25" value="" style="endArrow=classic;html=1;rounded=0;" edge="1" parent="1" source="Yys8PLo1uVGCUstoZyiG-24" target="Yys8PLo1uVGCUstoZyiG-21">
          <mxGeometry width="50" height="50" relative="1" as="geometry">
            <mxPoint x="110" y="180" as="sourcePoint" />
            <mxPoint x="160" y="130" as="targetPoint" />
          </mxGeometry>
        </mxCell>
        <mxCell id="Yys8PLo1uVGCUstoZyiG-26" value="Vision&lt;br&gt;Review" style="strokeWidth=2;html=1;shape=mxgraph.flowchart.document2;whiteSpace=wrap;size=0.25;" vertex="1" parent="1">
          <mxGeometry x="800" y="20" width="100" height="60" as="geometry" />
        </mxCell>
        <mxCell id="Yys8PLo1uVGCUstoZyiG-27" value="" style="endArrow=classic;html=1;rounded=0;" edge="1" parent="1" source="Yys8PLo1uVGCUstoZyiG-14" target="Yys8PLo1uVGCUstoZyiG-26">
          <mxGeometry width="50" height="50" relative="1" as="geometry">
            <mxPoint x="760" y="260" as="sourcePoint" />
            <mxPoint x="810" y="210" as="targetPoint" />
          </mxGeometry>
        </mxCell>
        <mxCell id="Yys8PLo1uVGCUstoZyiG-28" value="" style="endArrow=classic;html=1;rounded=0;" edge="1" parent="1" source="Yys8PLo1uVGCUstoZyiG-26" target="Yys8PLo1uVGCUstoZyiG-16">
          <mxGeometry width="50" height="50" relative="1" as="geometry">
            <mxPoint x="900" y="260" as="sourcePoint" />
            <mxPoint x="950" y="210" as="targetPoint" />
          </mxGeometry>
        </mxCell>
        <mxCell id="Yys8PLo1uVGCUstoZyiG-29" value="Scope&lt;br&gt;Writer" style="rounded=1;whiteSpace=wrap;html=1;absoluteArcSize=1;arcSize=14;strokeWidth=2;" vertex="1" parent="1">
          <mxGeometry x="320" y="220" width="100" height="100" as="geometry" />
        </mxCell>
        <mxCell id="Yys8PLo1uVGCUstoZyiG-30" value="Scope" style="strokeWidth=2;html=1;shape=mxgraph.flowchart.document2;whiteSpace=wrap;size=0.25;" vertex="1" parent="1">
          <mxGeometry x="480" y="240" width="100" height="60" as="geometry" />
        </mxCell>
        <mxCell id="Yys8PLo1uVGCUstoZyiG-31" value="" style="endArrow=classic;html=1;rounded=0;" edge="1" parent="1" source="Yys8PLo1uVGCUstoZyiG-29" target="Yys8PLo1uVGCUstoZyiG-30">
          <mxGeometry width="50" height="50" relative="1" as="geometry">
            <mxPoint x="100" y="590" as="sourcePoint" />
            <mxPoint x="150" y="540" as="targetPoint" />
          </mxGeometry>
        </mxCell>
        <mxCell id="Yys8PLo1uVGCUstoZyiG-32" value="Scope&lt;br&gt;Reviewer" style="rounded=1;whiteSpace=wrap;html=1;absoluteArcSize=1;arcSize=14;strokeWidth=2;" vertex="1" parent="1">
          <mxGeometry x="640" y="220" width="100" height="100" as="geometry" />
        </mxCell>
        <mxCell id="Yys8PLo1uVGCUstoZyiG-33" value="" style="endArrow=classic;html=1;rounded=0;" edge="1" parent="1" source="Yys8PLo1uVGCUstoZyiG-30" target="Yys8PLo1uVGCUstoZyiG-32">
          <mxGeometry width="50" height="50" relative="1" as="geometry">
            <mxPoint x="190" y="700" as="sourcePoint" />
            <mxPoint x="240" y="650" as="targetPoint" />
          </mxGeometry>
        </mxCell>
        <mxCell id="Yys8PLo1uVGCUstoZyiG-34" value="Approved?" style="strokeWidth=2;html=1;shape=mxgraph.flowchart.decision;whiteSpace=wrap;" vertex="1" parent="1">
          <mxGeometry x="960" y="220" width="100" height="100" as="geometry" />
        </mxCell>
        <mxCell id="Yys8PLo1uVGCUstoZyiG-35" value="Scope&lt;br&gt;Review" style="strokeWidth=2;html=1;shape=mxgraph.flowchart.document2;whiteSpace=wrap;size=0.25;" vertex="1" parent="1">
          <mxGeometry x="800" y="240" width="100" height="60" as="geometry" />
        </mxCell>
        <mxCell id="Yys8PLo1uVGCUstoZyiG-36" value="" style="endArrow=classic;html=1;rounded=0;" edge="1" parent="1" source="Yys8PLo1uVGCUstoZyiG-32" target="Yys8PLo1uVGCUstoZyiG-35">
          <mxGeometry width="50" height="50" relative="1" as="geometry">
            <mxPoint x="760" y="480" as="sourcePoint" />
            <mxPoint x="810" y="430" as="targetPoint" />
          </mxGeometry>
        </mxCell>
        <mxCell id="Yys8PLo1uVGCUstoZyiG-37" value="" style="endArrow=classic;html=1;rounded=0;" edge="1" parent="1" source="Yys8PLo1uVGCUstoZyiG-35" target="Yys8PLo1uVGCUstoZyiG-34">
          <mxGeometry width="50" height="50" relative="1" as="geometry">
            <mxPoint x="900" y="480" as="sourcePoint" />
            <mxPoint x="950" y="430" as="targetPoint" />
          </mxGeometry>
        </mxCell>
        <mxCell id="Yys8PLo1uVGCUstoZyiG-38" value="" style="curved=1;endArrow=classic;html=1;rounded=0;exitX=0.5;exitY=0;exitDx=0;exitDy=0;exitPerimeter=0;entryX=1;entryY=0;entryDx=0;entryDy=0;" edge="1" parent="1" source="Yys8PLo1uVGCUstoZyiG-34" target="Yys8PLo1uVGCUstoZyiG-29">
          <mxGeometry width="50" height="50" relative="1" as="geometry">
            <mxPoint x="810" y="190" as="sourcePoint" />
            <mxPoint x="480" y="190" as="targetPoint" />
            <Array as="points">
              <mxPoint x="810" y="140" />
            </Array>
          </mxGeometry>
        </mxCell>
        <mxCell id="Yys8PLo1uVGCUstoZyiG-39" value="Roadmap&lt;br&gt;Writing&lt;br&gt;Helper" style="rounded=1;whiteSpace=wrap;html=1;absoluteArcSize=1;arcSize=14;strokeWidth=2;" vertex="1" parent="1">
          <mxGeometry x="160" y="440" width="100" height="100" as="geometry" />
        </mxCell>
        <mxCell id="Yys8PLo1uVGCUstoZyiG-40" value="Roadmap&lt;br&gt;Discussion" style="strokeWidth=2;html=1;shape=mxgraph.flowchart.direct_data;whiteSpace=wrap;" vertex="1" parent="1">
          <mxGeometry y="460" width="100" height="60" as="geometry" />
        </mxCell>
        <mxCell id="Yys8PLo1uVGCUstoZyiG-41" value="" style="endArrow=classic;html=1;rounded=0;" edge="1" parent="1" source="Yys8PLo1uVGCUstoZyiG-40" target="Yys8PLo1uVGCUstoZyiG-39">
          <mxGeometry width="50" height="50" relative="1" as="geometry">
            <mxPoint x="110" y="400" as="sourcePoint" />
            <mxPoint x="160" y="350" as="targetPoint" />
          </mxGeometry>
        </mxCell>
        <mxCell id="Yys8PLo1uVGCUstoZyiG-42" value="Roadmap&lt;br&gt;Writer" style="rounded=1;whiteSpace=wrap;html=1;absoluteArcSize=1;arcSize=14;strokeWidth=2;" vertex="1" parent="1">
          <mxGeometry x="320" y="440" width="100" height="100" as="geometry" />
        </mxCell>
        <mxCell id="Yys8PLo1uVGCUstoZyiG-43" value="Roadmap" style="strokeWidth=2;html=1;shape=mxgraph.flowchart.document2;whiteSpace=wrap;size=0.25;" vertex="1" parent="1">
          <mxGeometry x="480" y="460" width="100" height="60" as="geometry" />
        </mxCell>
        <mxCell id="Yys8PLo1uVGCUstoZyiG-44" value="" style="endArrow=classic;html=1;rounded=0;" edge="1" parent="1" source="Yys8PLo1uVGCUstoZyiG-42" target="Yys8PLo1uVGCUstoZyiG-43">
          <mxGeometry width="50" height="50" relative="1" as="geometry">
            <mxPoint x="100" y="810" as="sourcePoint" />
            <mxPoint x="150" y="760" as="targetPoint" />
          </mxGeometry>
        </mxCell>
        <mxCell id="Yys8PLo1uVGCUstoZyiG-45" value="Roadmap&lt;br&gt;Reviewer" style="rounded=1;whiteSpace=wrap;html=1;absoluteArcSize=1;arcSize=14;strokeWidth=2;" vertex="1" parent="1">
          <mxGeometry x="640" y="440" width="100" height="100" as="geometry" />
        </mxCell>
        <mxCell id="Yys8PLo1uVGCUstoZyiG-46" value="" style="endArrow=classic;html=1;rounded=0;" edge="1" parent="1" source="Yys8PLo1uVGCUstoZyiG-43" target="Yys8PLo1uVGCUstoZyiG-45">
          <mxGeometry width="50" height="50" relative="1" as="geometry">
            <mxPoint x="190" y="920" as="sourcePoint" />
            <mxPoint x="240" y="870" as="targetPoint" />
          </mxGeometry>
        </mxCell>
        <mxCell id="Yys8PLo1uVGCUstoZyiG-47" value="Approved?" style="strokeWidth=2;html=1;shape=mxgraph.flowchart.decision;whiteSpace=wrap;" vertex="1" parent="1">
          <mxGeometry x="960" y="440" width="100" height="100" as="geometry" />
        </mxCell>
        <mxCell id="Yys8PLo1uVGCUstoZyiG-48" value="Roadmap&lt;br&gt;Review" style="strokeWidth=2;html=1;shape=mxgraph.flowchart.document2;whiteSpace=wrap;size=0.25;" vertex="1" parent="1">
          <mxGeometry x="800" y="460" width="100" height="60" as="geometry" />
        </mxCell>
        <mxCell id="Yys8PLo1uVGCUstoZyiG-49" value="" style="endArrow=classic;html=1;rounded=0;" edge="1" parent="1" source="Yys8PLo1uVGCUstoZyiG-45" target="Yys8PLo1uVGCUstoZyiG-48">
          <mxGeometry width="50" height="50" relative="1" as="geometry">
            <mxPoint x="760" y="700" as="sourcePoint" />
            <mxPoint x="810" y="650" as="targetPoint" />
          </mxGeometry>
        </mxCell>
        <mxCell id="Yys8PLo1uVGCUstoZyiG-50" value="" style="endArrow=classic;html=1;rounded=0;" edge="1" parent="1" source="Yys8PLo1uVGCUstoZyiG-48" target="Yys8PLo1uVGCUstoZyiG-47">
          <mxGeometry width="50" height="50" relative="1" as="geometry">
            <mxPoint x="900" y="700" as="sourcePoint" />
            <mxPoint x="950" y="650" as="targetPoint" />
          </mxGeometry>
        </mxCell>
        <mxCell id="Yys8PLo1uVGCUstoZyiG-51" value="" style="curved=1;endArrow=classic;html=1;rounded=0;entryX=1;entryY=0;entryDx=0;entryDy=0;exitX=0.5;exitY=0;exitDx=0;exitDy=0;exitPerimeter=0;" edge="1" parent="1" source="Yys8PLo1uVGCUstoZyiG-47" target="Yys8PLo1uVGCUstoZyiG-42">
          <mxGeometry width="50" height="50" relative="1" as="geometry">
            <mxPoint x="700" y="410" as="sourcePoint" />
            <mxPoint x="750" y="360" as="targetPoint" />
            <Array as="points">
              <mxPoint x="700" y="380" />
            </Array>
          </mxGeometry>
        </mxCell>
        <mxCell id="Yys8PLo1uVGCUstoZyiG-52" value="" style="curved=1;endArrow=classic;html=1;rounded=0;entryX=0.5;entryY=0;entryDx=0;entryDy=0;exitX=0.5;exitY=1;exitDx=0;exitDy=0;exitPerimeter=0;" edge="1" parent="1" source="Yys8PLo1uVGCUstoZyiG-34" target="Yys8PLo1uVGCUstoZyiG-39">
          <mxGeometry width="50" height="50" relative="1" as="geometry">
            <mxPoint x="380" y="400" as="sourcePoint" />
            <mxPoint x="430" y="350" as="targetPoint" />
            <Array as="points">
              <mxPoint x="380" y="350" />
            </Array>
          </mxGeometry>
        </mxCell>
        <mxCell id="Yys8PLo1uVGCUstoZyiG-53" value="" style="endArrow=classic;html=1;rounded=0;" edge="1" parent="1" source="Yys8PLo1uVGCUstoZyiG-21" target="Yys8PLo1uVGCUstoZyiG-29">
          <mxGeometry width="50" height="50" relative="1" as="geometry">
            <mxPoint x="170" y="460" as="sourcePoint" />
            <mxPoint x="220" y="410" as="targetPoint" />
          </mxGeometry>
        </mxCell>
        <mxCell id="Yys8PLo1uVGCUstoZyiG-54" value="" style="endArrow=classic;html=1;rounded=0;" edge="1" parent="1" source="Yys8PLo1uVGCUstoZyiG-39" target="Yys8PLo1uVGCUstoZyiG-42">
          <mxGeometry width="50" height="50" relative="1" as="geometry">
            <mxPoint x="60" y="390" as="sourcePoint" />
            <mxPoint x="110" y="340" as="targetPoint" />
          </mxGeometry>
        </mxCell>
        <mxCell id="Yys8PLo1uVGCUstoZyiG-55" value="Spec&lt;br&gt;Writing&lt;br&gt;Helper" style="rounded=1;whiteSpace=wrap;html=1;absoluteArcSize=1;arcSize=14;strokeWidth=2;" vertex="1" parent="1">
          <mxGeometry x="160" y="660" width="100" height="100" as="geometry" />
        </mxCell>
        <mxCell id="Yys8PLo1uVGCUstoZyiG-56" value="Spec&lt;br&gt;Discussion" style="strokeWidth=2;html=1;shape=mxgraph.flowchart.direct_data;whiteSpace=wrap;" vertex="1" parent="1">
          <mxGeometry y="680" width="100" height="60" as="geometry" />
        </mxCell>
        <mxCell id="Yys8PLo1uVGCUstoZyiG-57" value="" style="endArrow=classic;html=1;rounded=0;" edge="1" parent="1" source="Yys8PLo1uVGCUstoZyiG-56" target="Yys8PLo1uVGCUstoZyiG-55">
          <mxGeometry width="50" height="50" relative="1" as="geometry">
            <mxPoint x="110" y="620" as="sourcePoint" />
            <mxPoint x="160" y="570" as="targetPoint" />
          </mxGeometry>
        </mxCell>
        <mxCell id="Yys8PLo1uVGCUstoZyiG-58" value="Spec&lt;br&gt;Writer" style="rounded=1;whiteSpace=wrap;html=1;absoluteArcSize=1;arcSize=14;strokeWidth=2;" vertex="1" parent="1">
          <mxGeometry x="320" y="660" width="100" height="100" as="geometry" />
        </mxCell>
        <mxCell id="Yys8PLo1uVGCUstoZyiG-59" value="Spec(s)" style="strokeWidth=2;html=1;shape=mxgraph.flowchart.document2;whiteSpace=wrap;size=0.25;" vertex="1" parent="1">
          <mxGeometry x="480" y="680" width="100" height="60" as="geometry" />
        </mxCell>
        <mxCell id="Yys8PLo1uVGCUstoZyiG-60" value="" style="endArrow=classic;html=1;rounded=0;" edge="1" parent="1" source="Yys8PLo1uVGCUstoZyiG-58" target="Yys8PLo1uVGCUstoZyiG-59">
          <mxGeometry width="50" height="50" relative="1" as="geometry">
            <mxPoint x="100" y="1030" as="sourcePoint" />
            <mxPoint x="150" y="980" as="targetPoint" />
          </mxGeometry>
        </mxCell>
        <mxCell id="Yys8PLo1uVGCUstoZyiG-61" value="Spec&lt;br&gt;Reviewer" style="rounded=1;whiteSpace=wrap;html=1;absoluteArcSize=1;arcSize=14;strokeWidth=2;" vertex="1" parent="1">
          <mxGeometry x="640" y="660" width="100" height="100" as="geometry" />
        </mxCell>
        <mxCell id="Yys8PLo1uVGCUstoZyiG-62" value="" style="endArrow=classic;html=1;rounded=0;" edge="1" parent="1" source="Yys8PLo1uVGCUstoZyiG-59" target="Yys8PLo1uVGCUstoZyiG-61">
          <mxGeometry width="50" height="50" relative="1" as="geometry">
            <mxPoint x="190" y="1140" as="sourcePoint" />
            <mxPoint x="240" y="1090" as="targetPoint" />
          </mxGeometry>
        </mxCell>
        <mxCell id="Yys8PLo1uVGCUstoZyiG-63" value="Approved?" style="strokeWidth=2;html=1;shape=mxgraph.flowchart.decision;whiteSpace=wrap;" vertex="1" parent="1">
          <mxGeometry x="960" y="660" width="100" height="100" as="geometry" />
        </mxCell>
        <mxCell id="Yys8PLo1uVGCUstoZyiG-64" value="Spec&lt;br&gt;Review(s)" style="strokeWidth=2;html=1;shape=mxgraph.flowchart.document2;whiteSpace=wrap;size=0.25;" vertex="1" parent="1">
          <mxGeometry x="800" y="680" width="100" height="60" as="geometry" />
        </mxCell>
        <mxCell id="Yys8PLo1uVGCUstoZyiG-65" value="" style="endArrow=classic;html=1;rounded=0;" edge="1" parent="1" source="Yys8PLo1uVGCUstoZyiG-61" target="Yys8PLo1uVGCUstoZyiG-64">
          <mxGeometry width="50" height="50" relative="1" as="geometry">
            <mxPoint x="760" y="920" as="sourcePoint" />
            <mxPoint x="810" y="870" as="targetPoint" />
          </mxGeometry>
        </mxCell>
        <mxCell id="Yys8PLo1uVGCUstoZyiG-66" value="" style="endArrow=classic;html=1;rounded=0;" edge="1" parent="1" source="Yys8PLo1uVGCUstoZyiG-64" target="Yys8PLo1uVGCUstoZyiG-63">
          <mxGeometry width="50" height="50" relative="1" as="geometry">
            <mxPoint x="900" y="920" as="sourcePoint" />
            <mxPoint x="950" y="870" as="targetPoint" />
          </mxGeometry>
        </mxCell>
        <mxCell id="Yys8PLo1uVGCUstoZyiG-67" value="" style="curved=1;endArrow=classic;html=1;rounded=0;entryX=1;entryY=0;entryDx=0;entryDy=0;exitX=0.5;exitY=0;exitDx=0;exitDy=0;exitPerimeter=0;" edge="1" parent="1" source="Yys8PLo1uVGCUstoZyiG-63" target="Yys8PLo1uVGCUstoZyiG-58">
          <mxGeometry width="50" height="50" relative="1" as="geometry">
            <mxPoint x="700" y="590" as="sourcePoint" />
            <mxPoint x="750" y="540" as="targetPoint" />
            <Array as="points">
              <mxPoint x="700" y="560" />
            </Array>
          </mxGeometry>
        </mxCell>
        <mxCell id="Yys8PLo1uVGCUstoZyiG-68" value="" style="endArrow=classic;html=1;rounded=0;" edge="1" parent="1" source="Yys8PLo1uVGCUstoZyiG-55" target="Yys8PLo1uVGCUstoZyiG-58">
          <mxGeometry width="50" height="50" relative="1" as="geometry">
            <mxPoint x="60" y="610" as="sourcePoint" />
            <mxPoint x="110" y="560" as="targetPoint" />
          </mxGeometry>
        </mxCell>
        <mxCell id="Yys8PLo1uVGCUstoZyiG-69" value="" style="curved=1;endArrow=classic;html=1;rounded=0;exitX=0.5;exitY=1;exitDx=0;exitDy=0;exitPerimeter=0;entryX=1;entryY=0;entryDx=0;entryDy=0;" edge="1" parent="1" source="Yys8PLo1uVGCUstoZyiG-47" target="Yys8PLo1uVGCUstoZyiG-55">
          <mxGeometry width="50" height="50" relative="1" as="geometry">
            <mxPoint x="260" y="610" as="sourcePoint" />
            <mxPoint x="310" y="560" as="targetPoint" />
            <Array as="points">
              <mxPoint x="370" y="580" />
            </Array>
          </mxGeometry>
        </mxCell>
        <mxCell id="Yys8PLo1uVGCUstoZyiG-70" value="Skeleton&lt;br&gt;Writer" style="rounded=1;whiteSpace=wrap;html=1;absoluteArcSize=1;arcSize=14;strokeWidth=2;" vertex="1" parent="1">
          <mxGeometry x="320" y="880" width="100" height="100" as="geometry" />
        </mxCell>
        <mxCell id="Yys8PLo1uVGCUstoZyiG-71" value="" style="curved=1;endArrow=classic;html=1;rounded=0;entryX=0;entryY=0;entryDx=0;entryDy=0;exitX=0.5;exitY=1;exitDx=0;exitDy=0;exitPerimeter=0;" edge="1" parent="1" source="Yys8PLo1uVGCUstoZyiG-63" target="Yys8PLo1uVGCUstoZyiG-70">
          <mxGeometry width="50" height="50" relative="1" as="geometry">
            <mxPoint x="570" y="840" as="sourcePoint" />
            <mxPoint x="620" y="790" as="targetPoint" />
            <Array as="points">
              <mxPoint x="570" y="790" />
              <mxPoint x="430" y="810" />
            </Array>
          </mxGeometry>
        </mxCell>
        <mxCell id="Yys8PLo1uVGCUstoZyiG-72" value="Git Branch" style="strokeWidth=2;html=1;shape=mxgraph.flowchart.database;whiteSpace=wrap;" vertex="1" parent="1">
          <mxGeometry x="480" y="870" width="60" height="40" as="geometry" />
        </mxCell>
        <mxCell id="Yys8PLo1uVGCUstoZyiG-73" value="Interface&lt;div&gt;Skeleton&lt;/div&gt;" style="strokeWidth=2;html=1;shape=mxgraph.flowchart.document2;whiteSpace=wrap;size=0.25;" vertex="1" parent="1">
          <mxGeometry x="480" y="930" width="100" height="60" as="geometry" />
        </mxCell>
        <mxCell id="Yys8PLo1uVGCUstoZyiG-74" value="" style="endArrow=classic;html=1;rounded=0;" edge="1" parent="1" source="Yys8PLo1uVGCUstoZyiG-70" target="Yys8PLo1uVGCUstoZyiG-72">
          <mxGeometry width="50" height="50" relative="1" as="geometry">
            <mxPoint x="140" y="930" as="sourcePoint" />
            <mxPoint x="190" y="880" as="targetPoint" />
          </mxGeometry>
        </mxCell>
        <mxCell id="Yys8PLo1uVGCUstoZyiG-75" value="" style="endArrow=classic;html=1;rounded=0;" edge="1" parent="1" source="Yys8PLo1uVGCUstoZyiG-70" target="Yys8PLo1uVGCUstoZyiG-73">
          <mxGeometry width="50" height="50" relative="1" as="geometry">
            <mxPoint x="170" y="1080" as="sourcePoint" />
            <mxPoint x="220" y="1030" as="targetPoint" />
          </mxGeometry>
        </mxCell>
        <mxCell id="Yys8PLo1uVGCUstoZyiG-76" value="Skeleton&lt;br&gt;Reviewer" style="rounded=1;whiteSpace=wrap;html=1;absoluteArcSize=1;arcSize=14;strokeWidth=2;" vertex="1" parent="1">
          <mxGeometry x="640" y="880" width="100" height="100" as="geometry" />
        </mxCell>
        <mxCell id="Yys8PLo1uVGCUstoZyiG-77" value="" style="endArrow=classic;html=1;rounded=0;" edge="1" parent="1" source="Yys8PLo1uVGCUstoZyiG-73" target="Yys8PLo1uVGCUstoZyiG-76">
          <mxGeometry width="50" height="50" relative="1" as="geometry">
            <mxPoint x="560" y="1080" as="sourcePoint" />
            <mxPoint x="610" y="1030" as="targetPoint" />
          </mxGeometry>
        </mxCell>
        <mxCell id="Yys8PLo1uVGCUstoZyiG-78" value="Skeleton&lt;div&gt;Review&lt;/div&gt;" style="strokeWidth=2;html=1;shape=mxgraph.flowchart.document2;whiteSpace=wrap;size=0.25;" vertex="1" parent="1">
          <mxGeometry x="800" y="900" width="100" height="60" as="geometry" />
        </mxCell>
        <mxCell id="Yys8PLo1uVGCUstoZyiG-79" value="" style="endArrow=classic;html=1;rounded=0;" edge="1" parent="1" source="Yys8PLo1uVGCUstoZyiG-76" target="Yys8PLo1uVGCUstoZyiG-78">
          <mxGeometry width="50" height="50" relative="1" as="geometry">
            <mxPoint x="750" y="1050" as="sourcePoint" />
            <mxPoint x="800" y="1000" as="targetPoint" />
          </mxGeometry>
        </mxCell>
        <mxCell id="Yys8PLo1uVGCUstoZyiG-80" value="Approved?" style="strokeWidth=2;html=1;shape=mxgraph.flowchart.decision;whiteSpace=wrap;" vertex="1" parent="1">
          <mxGeometry x="960" y="880" width="100" height="100" as="geometry" />
        </mxCell>
        <mxCell id="Yys8PLo1uVGCUstoZyiG-81" value="" style="curved=1;endArrow=classic;html=1;rounded=0;entryX=1;entryY=0;entryDx=0;entryDy=0;exitX=0.5;exitY=0;exitDx=0;exitDy=0;exitPerimeter=0;" edge="1" parent="1" source="Yys8PLo1uVGCUstoZyiG-80" target="Yys8PLo1uVGCUstoZyiG-70">
          <mxGeometry width="50" height="50" relative="1" as="geometry">
            <mxPoint x="810" y="860" as="sourcePoint" />
            <mxPoint x="860" y="810" as="targetPoint" />
            <Array as="points">
              <mxPoint x="810" y="810" />
              <mxPoint x="560" y="830" />
            </Array>
          </mxGeometry>
        </mxCell>
        <mxCell id="Yys8PLo1uVGCUstoZyiG-82" value="" style="endArrow=classic;html=1;rounded=0;entryX=0;entryY=0.5;entryDx=0;entryDy=0;entryPerimeter=0;" edge="1" parent="1" source="Yys8PLo1uVGCUstoZyiG-78" target="Yys8PLo1uVGCUstoZyiG-80">
          <mxGeometry width="50" height="50" relative="1" as="geometry">
            <mxPoint x="190" y="1050" as="sourcePoint" />
            <mxPoint x="240" y="1000" as="targetPoint" />
          </mxGeometry>
        </mxCell>
        <mxCell id="Yys8PLo1uVGCUstoZyiG-83" value="Test&lt;br&gt;Writer" style="rounded=1;whiteSpace=wrap;html=1;absoluteArcSize=1;arcSize=14;strokeWidth=2;" vertex="1" parent="1">
          <mxGeometry x="320" y="1100" width="100" height="100" as="geometry" />
        </mxCell>
        <mxCell id="Yys8PLo1uVGCUstoZyiG-85" value="Tests" style="strokeWidth=2;html=1;shape=mxgraph.flowchart.document2;whiteSpace=wrap;size=0.25;" vertex="1" parent="1">
          <mxGeometry x="480" y="1120" width="100" height="60" as="geometry" />
        </mxCell>
        <mxCell id="Yys8PLo1uVGCUstoZyiG-87" value="" style="endArrow=classic;html=1;rounded=0;" edge="1" parent="1" source="Yys8PLo1uVGCUstoZyiG-83" target="Yys8PLo1uVGCUstoZyiG-85">
          <mxGeometry width="50" height="50" relative="1" as="geometry">
            <mxPoint x="170" y="1300" as="sourcePoint" />
            <mxPoint x="220" y="1250" as="targetPoint" />
          </mxGeometry>
        </mxCell>
        <mxCell id="Yys8PLo1uVGCUstoZyiG-88" value="Test&lt;br&gt;Reviewer" style="rounded=1;whiteSpace=wrap;html=1;absoluteArcSize=1;arcSize=14;strokeWidth=2;" vertex="1" parent="1">
          <mxGeometry x="640" y="1100" width="100" height="100" as="geometry" />
        </mxCell>
        <mxCell id="Yys8PLo1uVGCUstoZyiG-89" value="" style="endArrow=classic;html=1;rounded=0;" edge="1" parent="1" source="Yys8PLo1uVGCUstoZyiG-85" target="Yys8PLo1uVGCUstoZyiG-88">
          <mxGeometry width="50" height="50" relative="1" as="geometry">
            <mxPoint x="560" y="1300" as="sourcePoint" />
            <mxPoint x="610" y="1250" as="targetPoint" />
          </mxGeometry>
        </mxCell>
        <mxCell id="Yys8PLo1uVGCUstoZyiG-90" value="&lt;div&gt;Test&lt;/div&gt;&lt;div&gt;Review&lt;/div&gt;" style="strokeWidth=2;html=1;shape=mxgraph.flowchart.document2;whiteSpace=wrap;size=0.25;" vertex="1" parent="1">
          <mxGeometry x="800" y="1120" width="100" height="60" as="geometry" />
        </mxCell>
        <mxCell id="Yys8PLo1uVGCUstoZyiG-91" value="" style="endArrow=classic;html=1;rounded=0;" edge="1" parent="1" source="Yys8PLo1uVGCUstoZyiG-88" target="Yys8PLo1uVGCUstoZyiG-90">
          <mxGeometry width="50" height="50" relative="1" as="geometry">
            <mxPoint x="750" y="1270" as="sourcePoint" />
            <mxPoint x="800" y="1220" as="targetPoint" />
          </mxGeometry>
        </mxCell>
        <mxCell id="Yys8PLo1uVGCUstoZyiG-92" value="Approved?" style="strokeWidth=2;html=1;shape=mxgraph.flowchart.decision;whiteSpace=wrap;" vertex="1" parent="1">
          <mxGeometry x="960" y="1100" width="100" height="100" as="geometry" />
        </mxCell>
        <mxCell id="Yys8PLo1uVGCUstoZyiG-93" value="" style="curved=1;endArrow=classic;html=1;rounded=0;entryX=1;entryY=0;entryDx=0;entryDy=0;exitX=0.5;exitY=0;exitDx=0;exitDy=0;exitPerimeter=0;" edge="1" parent="1" source="Yys8PLo1uVGCUstoZyiG-92" target="Yys8PLo1uVGCUstoZyiG-83">
          <mxGeometry width="50" height="50" relative="1" as="geometry">
            <mxPoint x="810" y="1080" as="sourcePoint" />
            <mxPoint x="860" y="1030" as="targetPoint" />
            <Array as="points">
              <mxPoint x="810" y="1030" />
              <mxPoint x="560" y="1050" />
            </Array>
          </mxGeometry>
        </mxCell>
        <mxCell id="Yys8PLo1uVGCUstoZyiG-94" value="" style="endArrow=classic;html=1;rounded=0;entryX=0;entryY=0.5;entryDx=0;entryDy=0;entryPerimeter=0;" edge="1" parent="1" source="Yys8PLo1uVGCUstoZyiG-90" target="Yys8PLo1uVGCUstoZyiG-92">
          <mxGeometry width="50" height="50" relative="1" as="geometry">
            <mxPoint x="190" y="1270" as="sourcePoint" />
            <mxPoint x="240" y="1220" as="targetPoint" />
          </mxGeometry>
        </mxCell>
        <mxCell id="Yys8PLo1uVGCUstoZyiG-95" value="" style="curved=1;endArrow=classic;html=1;rounded=0;exitX=0.5;exitY=1;exitDx=0;exitDy=0;exitPerimeter=0;entryX=0;entryY=0;entryDx=0;entryDy=0;" edge="1" parent="1" source="Yys8PLo1uVGCUstoZyiG-80" target="Yys8PLo1uVGCUstoZyiG-83">
          <mxGeometry width="50" height="50" relative="1" as="geometry">
            <mxPoint x="680" y="1040" as="sourcePoint" />
            <mxPoint x="730" y="990" as="targetPoint" />
            <Array as="points">
              <mxPoint x="670" y="1010" />
            </Array>
          </mxGeometry>
        </mxCell>
        <mxCell id="Yys8PLo1uVGCUstoZyiG-96" value="Implementation&lt;br&gt;Writer" style="rounded=1;whiteSpace=wrap;html=1;absoluteArcSize=1;arcSize=14;strokeWidth=2;" vertex="1" parent="1">
          <mxGeometry x="320" y="1320" width="100" height="100" as="geometry" />
        </mxCell>
        <mxCell id="Yys8PLo1uVGCUstoZyiG-97" value="Implementation" style="strokeWidth=2;html=1;shape=mxgraph.flowchart.document2;whiteSpace=wrap;size=0.25;" vertex="1" parent="1">
          <mxGeometry x="480" y="1340" width="100" height="60" as="geometry" />
        </mxCell>
        <mxCell id="Yys8PLo1uVGCUstoZyiG-98" value="" style="endArrow=classic;html=1;rounded=0;" edge="1" parent="1" source="Yys8PLo1uVGCUstoZyiG-96" target="Yys8PLo1uVGCUstoZyiG-97">
          <mxGeometry width="50" height="50" relative="1" as="geometry">
            <mxPoint x="170" y="1520" as="sourcePoint" />
            <mxPoint x="220" y="1470" as="targetPoint" />
          </mxGeometry>
        </mxCell>
        <mxCell id="Yys8PLo1uVGCUstoZyiG-99" value="Implementation&lt;br&gt;Reviewer" style="rounded=1;whiteSpace=wrap;html=1;absoluteArcSize=1;arcSize=14;strokeWidth=2;" vertex="1" parent="1">
          <mxGeometry x="640" y="1320" width="100" height="100" as="geometry" />
        </mxCell>
        <mxCell id="Yys8PLo1uVGCUstoZyiG-100" value="" style="endArrow=classic;html=1;rounded=0;" edge="1" parent="1" source="Yys8PLo1uVGCUstoZyiG-97" target="Yys8PLo1uVGCUstoZyiG-99">
          <mxGeometry width="50" height="50" relative="1" as="geometry">
            <mxPoint x="560" y="1520" as="sourcePoint" />
            <mxPoint x="610" y="1470" as="targetPoint" />
          </mxGeometry>
        </mxCell>
        <mxCell id="Yys8PLo1uVGCUstoZyiG-101" value="&lt;div&gt;Implementation&lt;/div&gt;&lt;div&gt;Review&lt;/div&gt;" style="strokeWidth=2;html=1;shape=mxgraph.flowchart.document2;whiteSpace=wrap;size=0.25;" vertex="1" parent="1">
          <mxGeometry x="800" y="1340" width="100" height="60" as="geometry" />
        </mxCell>
        <mxCell id="Yys8PLo1uVGCUstoZyiG-102" value="" style="endArrow=classic;html=1;rounded=0;" edge="1" parent="1" source="Yys8PLo1uVGCUstoZyiG-99" target="Yys8PLo1uVGCUstoZyiG-101">
          <mxGeometry width="50" height="50" relative="1" as="geometry">
            <mxPoint x="750" y="1490" as="sourcePoint" />
            <mxPoint x="800" y="1440" as="targetPoint" />
          </mxGeometry>
        </mxCell>
        <mxCell id="Yys8PLo1uVGCUstoZyiG-103" value="Approved?" style="strokeWidth=2;html=1;shape=mxgraph.flowchart.decision;whiteSpace=wrap;" vertex="1" parent="1">
          <mxGeometry x="960" y="1320" width="100" height="100" as="geometry" />
        </mxCell>
        <mxCell id="Yys8PLo1uVGCUstoZyiG-104" value="" style="curved=1;endArrow=classic;html=1;rounded=0;entryX=1;entryY=0;entryDx=0;entryDy=0;exitX=0.5;exitY=0;exitDx=0;exitDy=0;exitPerimeter=0;" edge="1" parent="1" source="Yys8PLo1uVGCUstoZyiG-103" target="Yys8PLo1uVGCUstoZyiG-96">
          <mxGeometry width="50" height="50" relative="1" as="geometry">
            <mxPoint x="810" y="1260" as="sourcePoint" />
            <mxPoint x="860" y="1210" as="targetPoint" />
            <Array as="points">
              <mxPoint x="810" y="1210" />
            </Array>
          </mxGeometry>
        </mxCell>
        <mxCell id="Yys8PLo1uVGCUstoZyiG-105" value="" style="endArrow=classic;html=1;rounded=0;entryX=0;entryY=0.5;entryDx=0;entryDy=0;entryPerimeter=0;" edge="1" parent="1" source="Yys8PLo1uVGCUstoZyiG-101" target="Yys8PLo1uVGCUstoZyiG-103">
          <mxGeometry width="50" height="50" relative="1" as="geometry">
            <mxPoint x="190" y="1490" as="sourcePoint" />
            <mxPoint x="240" y="1440" as="targetPoint" />
          </mxGeometry>
        </mxCell>
        <mxCell id="Yys8PLo1uVGCUstoZyiG-106" value="" style="curved=1;endArrow=classic;html=1;rounded=0;entryX=0;entryY=0;entryDx=0;entryDy=0;exitX=0.5;exitY=1;exitDx=0;exitDy=0;exitPerimeter=0;" edge="1" parent="1" source="Yys8PLo1uVGCUstoZyiG-92" target="Yys8PLo1uVGCUstoZyiG-96">
          <mxGeometry width="50" height="50" relative="1" as="geometry">
            <mxPoint x="520" y="1260" as="sourcePoint" />
            <mxPoint x="570" y="1210" as="targetPoint" />
            <Array as="points">
              <mxPoint x="520" y="1210" />
            </Array>
          </mxGeometry>
        </mxCell>
        <mxCell id="Yys8PLo1uVGCUstoZyiG-107" value="Pull&lt;br&gt;Request" style="strokeWidth=2;html=1;shape=mxgraph.flowchart.document2;whiteSpace=wrap;size=0.25;" vertex="1" parent="1">
          <mxGeometry x="320" y="1560" width="100" height="60" as="geometry" />
        </mxCell>
        <mxCell id="Yys8PLo1uVGCUstoZyiG-110" value="" style="curved=1;endArrow=classic;html=1;rounded=0;entryX=0.5;entryY=0;entryDx=0;entryDy=0;entryPerimeter=0;exitX=0.5;exitY=1;exitDx=0;exitDy=0;exitPerimeter=0;" edge="1" parent="1" source="Yys8PLo1uVGCUstoZyiG-103" target="Yys8PLo1uVGCUstoZyiG-107">
          <mxGeometry width="50" height="50" relative="1" as="geometry">
            <mxPoint x="630" y="1520" as="sourcePoint" />
            <mxPoint x="680" y="1470" as="targetPoint" />
            <Array as="points">
              <mxPoint x="630" y="1470" />
            </Array>
          </mxGeometry>
        </mxCell>
      </root>
    </mxGraphModel>
  </diagram>
</mxfile>
